<svg width="72" height="72" viewBox="0 0 72 72" fill="none" xmlns="http://www.w3.org/2000/svg">
    <g clip-path="url(#clip0_684_1038)">
        <path d="M72 0H0V72H72V0Z" fill="url(#paint0_linear_684_1038)"/>
        <path d="M36 48C42.6274 48 48 42.6274 48 36C48 29.3726 42.6274 24 36 24C29.3726 24 24 29.3726 24 36C24 42.6274 29.3726 48 36 48Z" fill="white"/>
        <path d="M36.5 84C47.2696 84 56 77.2843 56 69C56 60.7157 47.2696 54 36.5 54C25.7304 54 17 60.7157 17 69C17 77.2843 25.7304 84 36.5 84Z" fill="white"/>
    </g>
    <defs>
        <linearGradient id="paint0_linear_684_1038" x1="0" y1="0" x2="62.6036" y2="-35.5638" gradientUnits="userSpaceOnUse">
            <stop offset="0.0454" stop-color="#44BCF0"/>
            <stop offset="0.592" stop-color="#7298F8"/>
            <stop offset="1" stop-color="#A099FF"/>
        </linearGradient>
            <clipPath id="clip0_684_1038">
                <rect width="72" height="72" fill="white"/>
            </clipPath>
    </defs>
</svg>